<mxfile host="app.diagrams.net" modified="2021-09-08T12:53:51.900Z" agent="5.0 (Windows NT 10.0; Win64; x64) AppleWebKit/537.36 (KHTML, like Gecko) Chrome/93.0.4577.63 Safari/537.36" etag="TjFKojHkqQOooiVA6pYF" version="15.0.6" type="github">
  <diagram id="6a731a19-8d31-9384-78a2-239565b7b9f0" name="Page-1">
    <mxGraphModel dx="868" dy="482" grid="1" gridSize="10" guides="1" tooltips="1" connect="1" arrows="1" fold="1" page="1" pageScale="1" pageWidth="1169" pageHeight="827" background="none" math="0" shadow="0">
      <root>
        <mxCell id="0" />
        <mxCell id="1" parent="0" />
        <mxCell id="2" value="start" style="shape=mxgraph.flowchart.terminator;strokeWidth=2;gradientColor=none;gradientDirection=north;fontStyle=0;html=1;" parent="1" vertex="1">
          <mxGeometry x="260" y="60" width="120" height="30" as="geometry" />
        </mxCell>
        <mxCell id="Se3zCVmpWicCLBLTkQA5-56" value="" style="edgeStyle=orthogonalEdgeStyle;rounded=0;orthogonalLoop=1;jettySize=auto;html=1;" edge="1" parent="1" source="3" target="Se3zCVmpWicCLBLTkQA5-55">
          <mxGeometry relative="1" as="geometry" />
        </mxCell>
        <mxCell id="3" value="x + y = 10&lt;br&gt;x - y = 6" style="shape=mxgraph.flowchart.data;strokeWidth=2;gradientColor=none;gradientDirection=north;fontStyle=0;html=1;" parent="1" vertex="1">
          <mxGeometry x="240.5" y="130" width="159" height="80" as="geometry" />
        </mxCell>
        <mxCell id="4" value="x = 10 - y&lt;br&gt;(10 - y) - y = -6" style="shape=mxgraph.flowchart.data;strokeWidth=2;gradientColor=none;gradientDirection=north;fontStyle=0;html=1;" parent="1" vertex="1">
          <mxGeometry x="242" y="400" width="159" height="80" as="geometry" />
        </mxCell>
        <mxCell id="7" style="fontStyle=1;strokeColor=#003366;strokeWidth=1;html=1;" parent="1" source="2" target="3" edge="1">
          <mxGeometry relative="1" as="geometry" />
        </mxCell>
        <mxCell id="12" value="" style="edgeStyle=elbowEdgeStyle;elbow=horizontal;fontColor=#001933;fontStyle=1;strokeColor=#003366;strokeWidth=1;html=1;" parent="1" target="4" edge="1">
          <mxGeometry width="100" height="100" as="geometry">
            <mxPoint x="324" y="307" as="sourcePoint" />
            <mxPoint x="100" as="targetPoint" />
          </mxGeometry>
        </mxCell>
        <mxCell id="Se3zCVmpWicCLBLTkQA5-58" value="" style="edgeStyle=orthogonalEdgeStyle;rounded=0;orthogonalLoop=1;jettySize=auto;html=1;" edge="1" parent="1" source="13" target="Se3zCVmpWicCLBLTkQA5-57">
          <mxGeometry relative="1" as="geometry" />
        </mxCell>
        <mxCell id="13" value="x = 10 - y&lt;br&gt;10 - 2y = -6" style="shape=mxgraph.flowchart.data;strokeWidth=2;gradientColor=none;gradientDirection=north;fontStyle=0;html=1;" parent="1" vertex="1">
          <mxGeometry x="240.5" y="530" width="159" height="80" as="geometry" />
        </mxCell>
        <mxCell id="17" value="" style="edgeStyle=elbowEdgeStyle;elbow=horizontal;fontStyle=1;strokeColor=#003366;strokeWidth=1;html=1;" parent="1" source="4" target="13" edge="1">
          <mxGeometry width="100" height="100" as="geometry">
            <mxPoint y="100" as="sourcePoint" />
            <mxPoint x="100" as="targetPoint" />
          </mxGeometry>
        </mxCell>
        <mxCell id="40" value="end" style="shape=mxgraph.flowchart.terminator;strokeWidth=2;gradientColor=none;gradientDirection=north;fontStyle=0;html=1;" parent="1" vertex="1">
          <mxGeometry x="260" y="1130" width="120" height="30" as="geometry" />
        </mxCell>
        <mxCell id="Se3zCVmpWicCLBLTkQA5-55" value="x = 10 -y&lt;br&gt;x - y = -6" style="shape=mxgraph.flowchart.data;strokeWidth=2;gradientColor=none;gradientDirection=north;fontStyle=0;html=1;" vertex="1" parent="1">
          <mxGeometry x="240.5" y="270" width="159" height="80" as="geometry" />
        </mxCell>
        <mxCell id="EQVmAEAFzcdrzgLIOgaB-42" value="" style="edgeStyle=orthogonalEdgeStyle;rounded=0;orthogonalLoop=1;jettySize=auto;html=1;" edge="1" parent="1" source="Se3zCVmpWicCLBLTkQA5-57" target="EQVmAEAFzcdrzgLIOgaB-41">
          <mxGeometry relative="1" as="geometry" />
        </mxCell>
        <mxCell id="Se3zCVmpWicCLBLTkQA5-57" value="x = 10 - y&lt;br&gt;10 - 2y = -6" style="shape=mxgraph.flowchart.data;strokeWidth=2;gradientColor=none;gradientDirection=north;fontStyle=0;html=1;" vertex="1" parent="1">
          <mxGeometry x="240.5" y="650" width="159" height="80" as="geometry" />
        </mxCell>
        <mxCell id="EQVmAEAFzcdrzgLIOgaB-44" value="" style="edgeStyle=orthogonalEdgeStyle;rounded=0;orthogonalLoop=1;jettySize=auto;html=1;" edge="1" parent="1" source="EQVmAEAFzcdrzgLIOgaB-41" target="EQVmAEAFzcdrzgLIOgaB-43">
          <mxGeometry relative="1" as="geometry" />
        </mxCell>
        <mxCell id="EQVmAEAFzcdrzgLIOgaB-41" value="x = 10 - y&lt;br&gt;y = 8" style="shape=mxgraph.flowchart.data;strokeWidth=2;gradientColor=none;gradientDirection=north;fontStyle=0;html=1;" vertex="1" parent="1">
          <mxGeometry x="240.5" y="770" width="159" height="80" as="geometry" />
        </mxCell>
        <mxCell id="EQVmAEAFzcdrzgLIOgaB-46" value="" style="edgeStyle=orthogonalEdgeStyle;rounded=0;orthogonalLoop=1;jettySize=auto;html=1;" edge="1" parent="1" source="EQVmAEAFzcdrzgLIOgaB-43" target="EQVmAEAFzcdrzgLIOgaB-45">
          <mxGeometry relative="1" as="geometry" />
        </mxCell>
        <mxCell id="EQVmAEAFzcdrzgLIOgaB-43" value="x = 10 - (8)&lt;br&gt;y = 8" style="shape=mxgraph.flowchart.data;strokeWidth=2;gradientColor=none;gradientDirection=north;fontStyle=0;html=1;" vertex="1" parent="1">
          <mxGeometry x="240.5" y="900" width="159" height="80" as="geometry" />
        </mxCell>
        <mxCell id="EQVmAEAFzcdrzgLIOgaB-48" value="" style="edgeStyle=orthogonalEdgeStyle;rounded=0;orthogonalLoop=1;jettySize=auto;html=1;" edge="1" parent="1" source="EQVmAEAFzcdrzgLIOgaB-45" target="40">
          <mxGeometry relative="1" as="geometry" />
        </mxCell>
        <mxCell id="EQVmAEAFzcdrzgLIOgaB-45" value="x = 2&lt;br&gt;y = 8" style="shape=mxgraph.flowchart.data;strokeWidth=2;gradientColor=none;gradientDirection=north;fontStyle=0;html=1;" vertex="1" parent="1">
          <mxGeometry x="240.5" y="1010" width="159" height="80" as="geometry" />
        </mxCell>
      </root>
    </mxGraphModel>
  </diagram>
</mxfile>
